<?xml version="1.0" encoding="utf-8"?>
<!-- Generator: Adobe Illustrator 25.4.1, SVG Export Plug-In . SVG Version: 6.00 Build 0)  -->
<svg version="1.2" baseProfile="tiny" xmlns="http://www.w3.org/2000/svg" xmlns:xlink="http://www.w3.org/1999/xlink" x="0px"
	 y="0px" viewBox="200 197 280 75" overflow="visible" xml:space="preserve">
<g id="Layer_1">
</g>
<g id="Layer_2">
	<g>
		<path fill="#ffffff" d="M269.54,264.19l3.73-9.71h1.38l3.97,9.71h-1.46l-1.13-2.94h-4.06l-1.07,2.94H269.54z M272.34,260.2h3.29
			l-1.01-2.69c-0.31-0.82-0.54-1.49-0.69-2.01c-0.12,0.62-0.3,1.24-0.52,1.85L272.34,260.2z"/>
		<path fill="#ffffff" d="M288.73,254.48h1.28v5.61c0,0.98-0.11,1.75-0.33,2.32c-0.22,0.57-0.62,1.04-1.2,1.4
			c-0.58,0.36-1.33,0.54-2.27,0.54c-0.91,0-1.65-0.16-2.23-0.47s-0.99-0.77-1.24-1.36s-0.37-1.4-0.37-2.43v-5.61h1.28v5.6
			c0,0.84,0.08,1.46,0.23,1.86c0.16,0.4,0.43,0.71,0.81,0.92c0.38,0.22,0.85,0.32,1.4,0.32c0.94,0,1.62-0.21,2.02-0.64
			c0.4-0.43,0.6-1.25,0.6-2.47V254.48z"/>
		<path fill="#ffffff" d="M294.87,264.19v-9.71h3.34c0.75,0,1.33,0.05,1.73,0.14c0.56,0.13,1.03,0.36,1.42,0.7
			c0.51,0.43,0.89,0.99,1.15,1.66s0.38,1.44,0.38,2.31c0,0.74-0.09,1.39-0.26,1.96s-0.39,1.04-0.66,1.41
			c-0.27,0.37-0.56,0.67-0.88,0.88c-0.32,0.21-0.71,0.38-1.16,0.49s-0.97,0.17-1.56,0.17H294.87z M296.15,263.04h2.07
			c0.64,0,1.14-0.06,1.51-0.18c0.36-0.12,0.65-0.29,0.87-0.5c0.3-0.3,0.54-0.71,0.71-1.23c0.17-0.51,0.25-1.14,0.25-1.87
			c0-1.01-0.17-1.79-0.5-2.34s-0.74-0.91-1.21-1.1c-0.34-0.13-0.9-0.2-1.66-0.2h-2.04V263.04z"/>
		<path fill="#ffffff" d="M307.59,264.19v-9.71h1.28v9.71H307.59z"/>
		<path fill="#ffffff" d="M316.32,264.19v-8.56h-3.2v-1.15h7.69v1.15h-3.21v8.56H316.32z"/>
		<path fill="#ffffff" d="M329.26,264.19l3.73-9.71h1.38l3.97,9.71h-1.46l-1.13-2.94h-4.06l-1.07,2.94H329.26z M332.06,260.2h3.29
			l-1.01-2.69c-0.31-0.82-0.54-1.49-0.69-2.01c-0.12,0.62-0.3,1.24-0.52,1.85L332.06,260.2z"/>
		<path fill="#ffffff" d="M342.07,264.19v-9.71h1.32l5.1,7.62v-7.62h1.23v9.71h-1.32l-5.1-7.63v7.63H342.07z"/>
		<path fill="#ffffff" d="M354.58,264.19v-9.71h3.34c0.75,0,1.33,0.05,1.73,0.14c0.56,0.13,1.03,0.36,1.42,0.7
			c0.51,0.43,0.89,0.99,1.15,1.66s0.38,1.44,0.38,2.31c0,0.74-0.09,1.39-0.26,1.96c-0.17,0.57-0.39,1.04-0.66,1.41
			c-0.27,0.37-0.56,0.67-0.88,0.88c-0.32,0.21-0.71,0.38-1.16,0.49c-0.45,0.11-0.97,0.17-1.56,0.17H354.58z M355.87,263.04h2.07
			c0.64,0,1.14-0.06,1.51-0.18s0.65-0.29,0.87-0.5c0.3-0.3,0.54-0.71,0.71-1.23c0.17-0.51,0.25-1.14,0.25-1.87
			c0-1.01-0.17-1.79-0.5-2.34c-0.33-0.54-0.74-0.91-1.21-1.1c-0.34-0.13-0.9-0.2-1.66-0.2h-2.04V263.04z"/>
		<path fill="#ffffff" d="M371.75,264.19l3.73-9.71h1.38l3.97,9.71h-1.46l-1.13-2.94h-4.06l-1.07,2.94H371.75z M374.55,260.2h3.29
			l-1.01-2.69c-0.31-0.82-0.54-1.49-0.69-2.01c-0.12,0.62-0.3,1.24-0.52,1.85L374.55,260.2z"/>
		<path fill="#ffffff" d="M384.57,264.19v-9.71h3.34c0.75,0,1.33,0.05,1.73,0.14c0.56,0.13,1.03,0.36,1.42,0.7
			c0.51,0.43,0.9,0.99,1.15,1.66c0.25,0.67,0.38,1.44,0.38,2.31c0,0.74-0.09,1.39-0.26,1.96s-0.39,1.04-0.66,1.41
			s-0.56,0.67-0.88,0.88c-0.32,0.21-0.71,0.38-1.16,0.49c-0.45,0.11-0.97,0.17-1.56,0.17H384.57z M385.86,263.04h2.07
			c0.64,0,1.14-0.06,1.51-0.18s0.65-0.29,0.87-0.5c0.3-0.3,0.54-0.71,0.71-1.23c0.17-0.51,0.25-1.14,0.25-1.87
			c0-1.01-0.17-1.79-0.5-2.34c-0.33-0.54-0.74-0.91-1.21-1.1c-0.34-0.13-0.9-0.2-1.66-0.2h-2.04V263.04z"/>
		<path fill="#ffffff" d="M399.85,264.19l-3.76-9.71h1.39l2.52,7.05c0.2,0.56,0.37,1.09,0.51,1.59c0.15-0.53,0.33-1.06,0.52-1.59
			l2.62-7.05h1.31l-3.8,9.71H399.85z"/>
		<path fill="#ffffff" d="M409.05,264.19v-9.71h1.28v9.71H409.05z"/>
		<path fill="#ffffff" d="M414.87,261.07l1.21-0.11c0.06,0.49,0.19,0.88,0.4,1.19c0.21,0.31,0.54,0.56,0.98,0.75
			s0.94,0.29,1.49,0.29c0.49,0,0.92-0.07,1.3-0.22s0.65-0.34,0.84-0.6c0.18-0.25,0.27-0.53,0.27-0.83c0-0.3-0.09-0.57-0.26-0.8
			s-0.47-0.42-0.87-0.57c-0.26-0.1-0.84-0.26-1.73-0.47s-1.52-0.42-1.87-0.61c-0.46-0.24-0.81-0.54-1.04-0.9
			c-0.23-0.36-0.34-0.76-0.34-1.21c0-0.49,0.14-0.95,0.42-1.37c0.28-0.43,0.68-0.75,1.22-0.97s1.13-0.33,1.78-0.33
			c0.72,0,1.35,0.12,1.9,0.35c0.55,0.23,0.97,0.57,1.27,1.02c0.3,0.45,0.46,0.96,0.48,1.53l-1.23,0.09
			c-0.07-0.61-0.29-1.08-0.67-1.39c-0.38-0.31-0.95-0.47-1.69-0.47c-0.78,0-1.34,0.14-1.7,0.43c-0.36,0.28-0.53,0.63-0.53,1.03
			c0,0.35,0.13,0.64,0.38,0.86c0.25,0.23,0.89,0.46,1.94,0.69s1.76,0.44,2.15,0.62c0.57,0.26,0.98,0.59,1.25,0.99
			c0.27,0.4,0.4,0.86,0.4,1.38c0,0.52-0.15,1-0.44,1.46c-0.3,0.46-0.72,0.81-1.27,1.07c-0.55,0.25-1.18,0.38-1.87,0.38
			c-0.88,0-1.61-0.13-2.21-0.38s-1.06-0.64-1.4-1.16C415.07,262.3,414.89,261.72,414.87,261.07z"/>
		<path fill="#ffffff" d="M426.67,259.46c0-1.61,0.43-2.87,1.3-3.78c0.87-0.91,1.98-1.37,3.35-1.37c0.9,0,1.7,0.21,2.42,0.64
			c0.72,0.43,1.27,1.03,1.65,1.79c0.38,0.77,0.57,1.63,0.57,2.6c0,0.98-0.2,1.87-0.6,2.64c-0.4,0.78-0.96,1.37-1.69,1.76
			c-0.73,0.4-1.51,0.6-2.36,0.6c-0.91,0-1.73-0.22-2.45-0.66s-1.26-1.04-1.63-1.81C426.86,261.12,426.67,260.31,426.67,259.46z
			 M428,259.48c0,1.17,0.31,2.09,0.94,2.76c0.63,0.67,1.42,1.01,2.37,1.01c0.97,0,1.76-0.34,2.39-1.02
			c0.62-0.68,0.94-1.64,0.94-2.89c0-0.79-0.13-1.48-0.4-2.07c-0.27-0.59-0.66-1.05-1.17-1.37c-0.51-0.32-1.09-0.49-1.73-0.49
			c-0.91,0-1.69,0.31-2.35,0.94C428.33,256.98,428,258.02,428,259.48z"/>
		<path fill="#ffffff" d="M440.34,264.19v-9.71h4.3c0.87,0,1.52,0.09,1.97,0.26c0.45,0.17,0.81,0.48,1.08,0.92
			c0.27,0.44,0.4,0.93,0.4,1.46c0,0.69-0.22,1.27-0.67,1.74c-0.45,0.47-1.13,0.77-2.07,0.9c0.34,0.16,0.6,0.33,0.77,0.48
			c0.38,0.34,0.73,0.77,1.07,1.29l1.69,2.64h-1.62l-1.28-2.02c-0.38-0.58-0.68-1.03-0.93-1.34c-0.24-0.31-0.46-0.53-0.65-0.65
			c-0.19-0.12-0.39-0.21-0.59-0.26c-0.15-0.03-0.38-0.05-0.71-0.05h-1.49v4.31H440.34z M441.63,258.77h2.76
			c0.59,0,1.05-0.06,1.38-0.18c0.33-0.12,0.58-0.32,0.75-0.58c0.17-0.27,0.26-0.56,0.26-0.87c0-0.46-0.17-0.84-0.5-1.13
			c-0.33-0.29-0.86-0.44-1.58-0.44h-3.07V258.77z"/>
		<path fill="#ffffff" d="M455.31,264.19v-4.11l-3.74-5.59h1.56l1.91,2.93c0.35,0.55,0.68,1.09,0.99,1.64
			c0.29-0.51,0.64-1.08,1.06-1.71l1.88-2.85h1.5l-3.87,5.59v4.11H455.31z"/>
	</g>
	<polygon fill="#0D0D0D" points="313.43,199.32 313.3,199.35 313.33,199.24 	"/>
	<path fill="#ffffff" d="M269.2,208.62h8.14v29.47h17.47v7.9H269.2V208.62z"/>
	<path fill="#ffffff" d="M305.91,242.33c-2.76-2.97-4.15-7.13-4.15-12.46v-21.25h8.14v21.25c0,2.85,0.67,5.09,2.01,6.73
		c1.34,1.64,3.22,2.46,5.63,2.46c2.35,0,4.2-0.82,5.56-2.46c1.36-1.64,2.04-3.88,2.04-6.73v-21.25h8.14v21.25
		c0,5.34-1.37,9.49-4.12,12.46c-2.75,2.97-6.62,4.46-11.62,4.46C312.55,246.78,308.67,245.3,305.91,242.33z"/>
	<path fill="#ffffff" d="M374.79,208.62h7.3v37.37H374V222.6l-10.23,13.45h-1.59l-10.33-13.51v23.43h-8.09v-37.37h7.3l11.87,15.91
		L374.79,208.62z"/>
	<path fill="#ffffff" d="M452.48,208.62h8.09v37.37h-7.3l-15.74-23.11l0.1,10.09v13.03h-8.09v-37.37h7.3l15.74,23.22l-0.1-9.98
		V208.62z"/>
	<polygon fill="#B19B4F" points="400.95,220.71 400.95,215.93 419.57,215.93 419.57,208.62 393.06,208.62 393.06,220.71 	"/>
	<polygon fill="#ffffff" points="400.95,238.62 400.95,230.56 418.58,230.56 418.58,223.51 401.28,223.51 400.95,223.51 
		393.06,223.51 393.06,245.98 420.12,245.98 420.12,238.62 	"/>
	<path fill="#B19B4F" d="M201.66,210.9v28.87c0,6.64,3.46,12.79,9.12,16.25l12.86,7.84c0.75,0.46,1.7,0.44,2.44-0.04l13.39-8.83
		c1.41-0.93,1.36-3.02-0.1-3.87l-18.54-10.88c-0.7-0.41-1.12-1.15-1.13-1.96l-0.1-27.39c0-1.26-1.02-2.27-2.28-2.27h-13.38
		C202.68,208.62,201.66,209.64,201.66,210.9z"/>
	<path fill="#ffffff" d="M225.52,213.38v21.91c0,0.82,0.44,1.57,1.15,1.98l17.44,9.95c1.15,0.66,2.62,0.2,3.19-1l0,0
		c0.15-0.31,0.22-0.64,0.22-0.98v-34.31c0-1.26-1.02-2.28-2.28-2.28h-15.9c-0.78,0-1.51,0.4-1.93,1.07l-1.54,2.45
		C225.64,212.53,225.52,212.95,225.52,213.38z"/>
	<line fill="none" stroke="#202A5A" stroke-miterlimit="10" x1="257.05" y1="208.62" x2="257.05" y2="265.14"/>
</g>
<g id="Layer_3">
</g>
</svg>

